<svg xmlns="http://www.w3.org/2000/svg" viewBox="0 0 961 251.31"><defs><style>.cls-1{fill:#ffffff;}.cls-2{fill:#ffffff;}</style></defs><g id="Camada_2" data-name="Camada 2"><g id="Layer_1" data-name="Layer 1"><rect class="cls-1" x="111.68" y="235.48" width="5.27" height="5.28"/><rect class="cls-1" x="111.68" y="224.93" width="5.27" height="5.28"/><polygon class="cls-1" points="135.45 191.09 131.72 194.82 127.98 198.56 127.98 203.83 127.98 209.1 127.98 214.38 130.62 211.74 133.26 209.1 133.26 203.83 133.26 200.74 135.45 198.56 138.54 195.47 138.54 198.56 138.54 203.83 138.54 209.1 141.17 206.47 143.81 203.83 143.81 198.56 143.81 193.28 143.81 190.19 146.64 187.36 142.91 183.63 139.18 187.36 135.45 191.09"/><rect class="cls-1" x="169.68" y="214.38" width="5.27" height="5.28"/><polygon class="cls-1" points="133.26 214.38 130.62 217.02 127.98 219.66 133.26 219.66 133.26 214.38"/><polygon class="cls-1" points="143.81 208.94 141.17 211.58 138.54 214.22 143.81 214.22 143.81 208.94"/><polygon class="cls-1" points="154.36 203.83 151.72 206.47 149.09 209.11 154.36 209.11 154.36 203.83"/><polygon class="cls-1" points="169.68 156.85 169.69 156.85 169.02 157.52 165.29 161.25 161.56 164.98 157.83 168.71 154.1 172.44 150.37 176.17 146.64 179.9 142.91 183.63 146.64 187.36 149.09 184.91 149.09 188 149.09 193.28 149.09 198.55 149.09 203.83 151.72 201.19 154.36 198.55 154.36 193.28 154.36 188 154.36 179.64 157.83 176.17 161.56 172.44 165.29 168.71 169.02 164.98 169.68 164.32 169.68 166.9 169.68 172.18 169.68 177.45 169.68 182.73 169.68 188 169.68 193.28 169.68 198.55 169.68 203.83 169.68 209.1 174.95 209.1 174.95 203.83 174.95 198.55 174.95 193.28 174.95 188 174.95 182.73 174.95 177.45 174.95 172.18 174.95 166.9 174.95 161.63 174.95 156.85 174.95 156.35 174.95 151.57 172.28 154.17 169.68 156.85"/><path class="cls-1" d="M169.68,235.48h-5.26v-5.27h5.26Zm0-10.55H159.14v15.83h10.54V246h-15.8v-21.1H122.23v15.83h15.82V246H88.62l1.1-1.09,3.72-3.73,3.73-3.73,3.74-3.73,3.15-3.15,3.73-3.73,3.73-3.73,3.73-3.73,3.73-3.73,3.73-3.73v-7.47L119,208.22,115.25,212l-3.73,3.73-3.73,3.73-3.73,3.73-3.73,3.73L97.17,230l-.57.58-3.16,3.15-3.72,3.73L86,241.21l-3.73,3.73-6.36,6.36h67.44V235.48H127.5v-5.27h21.1v21.1H175V224.93h-5.27Z"/><rect class="cls-1" x="33.91" y="194.77" width="5.28" height="5.28" transform="translate(-128.88 83.66) rotate(-45)"/><rect class="cls-1" x="41.37" y="187.31" width="5.28" height="5.28" transform="translate(-121.42 86.75) rotate(-45)"/><rect class="cls-1" x="89.84" y="220.86" width="5.28" height="5.28" transform="translate(-130.95 130.85) rotate(-45)"/><polygon class="cls-1" points="59.27 194.02 63 197.75 66.73 194.02 63 194.02 59.27 194.02"/><polygon class="cls-1" points="70.57 197.63 74.31 201.36 78.03 197.63 74.31 197.63 70.57 197.63"/><polygon class="cls-1" points="81.65 201.48 85.38 205.21 89.11 201.48 85.38 201.48 81.65 201.48"/><polygon class="cls-1" points="122.32 189.93 118.59 193.66 114.86 197.39 111.13 201.12 107.4 204.85 103.67 208.58 99.94 212.31 96.21 216.04 99.94 219.77 103.67 216.04 107.4 212.31 111.13 208.58 114.86 204.85 118.59 201.12 122.32 197.39 126.05 193.66 129.78 189.93 133.51 186.2 136.89 182.82 137.24 182.47 140.62 179.09 136.89 179.03 133.16 179.09 133.17 179.1 132.22 179.1 126.94 179.1 121.67 179.1 116.39 179.1 111.11 179.1 105.84 179.1 100.56 179.1 95.29 179.1 90.01 179.1 84.74 179.1 79.46 179.1 74.19 179.1 70.46 182.83 66.73 186.56 63 190.29 66.73 190.29 70.46 190.29 74.19 186.56 76.37 184.38 79.46 184.38 83.83 184.38 81.65 186.56 77.92 190.29 74.19 194.02 77.92 194.02 81.65 194.02 85.38 190.29 89.11 186.56 91.29 184.38 95.29 184.38 98.75 184.38 96.57 186.56 92.84 190.29 89.11 194.02 85.38 197.75 89.11 197.75 92.84 197.75 96.57 194.02 100.3 190.29 106.22 184.38 111.11 184.38 116.39 184.38 121.67 184.38 126.94 184.38 127.87 184.38 126.05 186.2 122.32 189.93"/><path class="cls-1" d="M77.57,227.24,81.29,231l-3.73,3.73L73.84,231Zm3.72,11.18L85,234.69,88.75,231,85,227.24h0l-3.72-3.72-3.73-3.73-3.73,3.73-3.73,3.73L66.38,231l3.73,3.73,3.72,3.72-3.73,3.73-3.72-3.72-3.73-3.73L58.93,231l3.73-3.73,3.73-3.73,3.73-3.73,3.73-3.73-3.73-3.73-3.73-3.73-3.73-3.73-3.73-3.73-3.73-3.73-3.73-3.73-3.73,3.73L44,201.14l-3.74,3.73L44,208.6l3.73,3.73,3.73,3.73-3.73,3.73L23.2,195.26l-3.73-3.73-3.73-3.74-3-2.95H61l2.64-2.64,2.63-2.64H.05l4.5,4.5.77.78,3,2.95L12,191.53l3.73,3.73L19.47,199l28.27,28.26,3.73-3.73,3.73-3.73,3.73-3.73-3.73-3.73-3.73-3.73-3.73-3.73,3.73-3.73,3.73,3.73,3.73,3.73,3.73,3.73,3.73,3.73-3.73,3.73-3.73,3.73-3.73,3.73L51.47,231l3.71,3.72h0l3.71,3.72,3.74,3.73,3.71,3.72h0l3.72,3.72,3.73-3.73,3.73-3.73Z"/><rect class="cls-1" x="10.55" y="111.01" width="5.27" height="5.28"/><rect class="cls-1" x="21.1" y="111.01" width="5.27" height="5.28"/><polygon class="cls-1" points="60.21 134.78 56.48 131.05 52.75 127.32 47.48 127.32 42.2 127.32 36.93 127.32 39.56 129.96 42.2 132.6 47.48 132.6 50.57 132.6 52.75 134.78 55.84 137.87 52.75 137.87 47.48 137.87 42.2 137.87 44.84 140.51 47.48 143.15 52.75 143.15 58.03 143.15 61.12 143.15 63.95 145.97 67.67 142.24 63.95 138.51 60.21 134.78"/><rect class="cls-1" x="31.65" y="169.01" width="5.27" height="5.28"/><polygon class="cls-1" points="34.29 129.96 31.65 127.32 31.65 132.6 36.93 132.6 34.29 129.96"/><polygon class="cls-1" points="37.09 137.87 37.09 143.15 42.37 143.15 39.73 140.51 37.09 137.87"/><polygon class="cls-1" points="47.48 153.7 44.84 151.06 42.2 148.42 42.2 153.7 47.48 153.7"/><polygon class="cls-1" points="67.67 142.24 63.95 145.97 66.39 148.42 63.3 148.42 58.03 148.42 52.75 148.42 47.48 148.42 50.12 151.06 52.75 153.7 58.03 153.7 63.3 153.7 71.67 153.7 75.14 157.16 78.87 160.89 82.6 164.62 86.33 168.35 86.98 169.01 84.41 169.01 79.13 169.01 73.86 169.01 68.58 169.01 63.3 169.01 58.03 169.01 52.75 169.01 47.48 169.01 42.2 169.01 42.2 174.29 47.48 174.29 52.75 174.29 58.03 174.29 63.3 174.29 68.58 174.29 73.86 174.29 79.13 174.29 84.41 174.29 89.68 174.29 94.46 174.29 94.96 174.29 99.74 174.29 97.14 171.61 94.46 169.01 94.46 169.03 93.79 168.35 90.06 164.62 86.33 160.89 82.6 157.16 78.87 153.43 75.14 149.7 71.41 145.97 67.67 142.24"/><path class="cls-1" d="M15.83,163.75H21.1V169H15.83Zm-5.28,10.54H26.38V158.48H10.55V169H5.27v-15.8H26.38V121.56H10.55v15.83H5.27V88l1.1,1.09,3.73,3.73,3.73,3.73,3.73,3.73,3.15,3.15,3.73,3.73,3.73,3.73,3.73,3.74,3.73,3.72L39.36,122h7.46l-3.73-3.73-3.73-3.72-3.73-3.74-3.73-3.73-3.73-3.73-3.73-3.73-3.15-3.15-.58-.58-3.15-3.15-3.73-3.73L10.1,85.32,6.37,81.59,0,75.23v67.43H15.83V126.84H21.1v21.1H0v5.26H0v21.08H10.55Z"/><rect class="cls-1" x="51.82" y="33.85" width="5.28" height="5.28" transform="translate(-9.85 49.2) rotate(-45)"/><rect class="cls-1" x="59.28" y="41.31" width="5.28" height="5.28" transform="translate(-12.94 56.66) rotate(-45)"/><polygon class="cls-1" points="72.77 84.69 72.77 79.41 72.77 74.13 69.04 70.4 65.31 66.67 61.58 62.94 61.58 66.67 61.58 70.4 65.31 74.13 67.49 76.32 67.49 79.41 67.49 83.78 65.31 81.59 61.58 77.86 57.85 74.13 57.85 77.86 57.85 81.59 61.58 85.33 65.31 89.06 67.49 91.24 67.49 95.23 72.77 95.23 72.77 89.96 72.77 84.69"/><rect class="cls-1" x="25.73" y="89.78" width="5.28" height="5.28" transform="translate(-57.04 47.13) rotate(-45)"/><polygon class="cls-1" points="57.85 62.94 57.85 59.21 54.12 62.94 57.85 66.67 57.85 62.94"/><polygon class="cls-1" points="54.23 77.98 54.23 74.25 54.23 70.52 50.5 74.25 54.23 77.98"/><polygon class="cls-1" points="50.39 85.32 50.39 81.59 46.66 85.32 50.39 89.06 50.39 85.32"/><polygon class="cls-1" points="67.49 98.7 65.31 96.52 61.58 92.78 57.85 89.06 54.12 85.33 54.12 89.06 54.12 92.78 57.85 96.52 61.58 100.25 67.49 106.16 67.49 111.06 67.49 116.34 67.49 121.61 67.49 126.89 67.49 127.82 65.67 126 61.94 122.27 58.21 118.53 54.48 114.8 50.75 111.07 47.02 107.34 43.29 103.61 39.56 99.88 35.83 96.15 32.1 99.88 35.83 103.61 39.56 107.34 43.29 111.07 47.02 114.8 50.75 118.53 54.48 122.27 58.21 126 61.94 129.72 65.67 133.46 69.05 136.84 69.4 137.19 72.78 140.57 72.77 95.23 67.49 95.23 67.49 98.7"/><path class="cls-1" d="M20.9,73.78l3.73,3.73-3.72,3.72L17.18,77.5ZM9.72,77.5l3.73,3.73L17.18,85l3.73,3.73L24.63,85h0l3.72-3.72,3.73-3.73-3.73-3.73-3.73-3.73L20.9,66.32l-3.73,3.73-3.72,3.72L9.72,70l3.72-3.72,3.73-3.73,3.72-3.72,3.73,3.73,3.73,3.73,3.73,3.73,3.73,3.73,3.73-3.73,3.73-3.73L47,62.6l3.73-3.73,3.73-3.73,3.73-3.73-3.73-3.73L50.73,44,47,40.22,43.27,44l-3.73,3.73-3.73,3.73-3.73-3.73L56.61,23.15l3.73-3.73,3.73-3.74,3-2.95v48.2l2.64,2.64,2.64,2.64V0L67.8,4.49,67,5.27l-3,3L60.34,12l-3.73,3.73-3.73,3.74L24.62,47.68l3.73,3.73,3.73,3.73,3.73,3.73,3.73-3.73,3.73-3.73L47,47.68l3.73,3.73L47,55.14l-3.73,3.73L39.54,62.6l-3.73,3.73L32.08,62.6l-3.73-3.73-3.73-3.73-3.73-3.73-3.72,3.72h0l-3.72,3.72L9.71,62.59,6,66.31H6L2.26,70,6,73.77Z"/><rect class="cls-1" x="135.58" y="10.55" width="5.28" height="5.28"/><rect class="cls-1" x="135.58" y="21.1" width="5.28" height="5.28"/><polygon class="cls-1" points="117.09 60.22 120.82 56.48 124.55 52.75 124.55 47.48 124.55 42.2 124.55 36.93 121.91 39.56 119.27 42.2 119.27 47.48 119.27 50.57 117.09 52.75 114 55.84 114 52.75 114 47.48 114 42.2 111.36 44.84 108.72 47.48 108.72 52.75 108.72 58.03 108.72 61.12 105.9 63.95 109.63 67.67 113.36 63.95 117.09 60.22"/><rect class="cls-1" x="77.58" y="31.65" width="5.28" height="5.28"/><polygon class="cls-1" points="119.27 36.93 121.91 34.29 124.55 31.65 119.27 31.65 119.27 36.93"/><polygon class="cls-1" points="108.72 42.37 111.36 39.73 114 37.09 108.72 37.09 108.72 42.37"/><polygon class="cls-1" points="98.17 47.48 100.81 44.84 103.45 42.2 98.17 42.2 98.17 47.48"/><polygon class="cls-1" points="82.86 94.46 82.84 94.46 83.51 93.79 87.25 90.06 90.97 86.33 94.7 82.6 98.44 78.87 102.17 75.14 105.9 71.41 109.63 67.67 105.9 63.95 103.45 66.4 103.45 63.31 103.45 58.03 103.45 52.76 103.45 47.48 100.81 50.12 98.17 52.76 98.17 58.03 98.17 63.31 98.17 71.67 94.7 75.14 90.97 78.87 87.25 82.6 83.51 86.33 82.86 86.98 82.86 84.41 82.86 79.13 82.86 73.86 82.86 68.58 82.86 63.31 82.86 58.03 82.86 52.76 82.86 47.48 82.86 42.2 77.58 42.2 77.58 47.48 77.58 52.76 77.58 58.03 77.58 63.31 77.58 68.58 77.58 73.86 77.58 79.13 77.58 84.41 77.58 89.68 77.58 94.46 77.58 94.96 77.58 99.74 80.26 97.14 82.86 94.46"/><path class="cls-1" d="M82.86,15.83h5.26V21.1H82.86Zm0,10.55H93.39V10.55H82.86V5.28H98.65v21.1h31.66V10.55H114.48V5.28h49.43l-1.09,1.09-3.73,3.73-3.73,3.73-3.73,3.73-3.16,3.15-3.73,3.73L141,28.17l-3.73,3.73-3.73,3.73-3.73,3.73v7.46l3.73-3.73,3.73-3.73L141,35.63l3.73-3.73,3.73-3.73,3.73-3.73,3.16-3.15.58-.58,3.15-3.15,3.73-3.73,3.73-3.73,3.73-3.73L176.64,0H109.2V15.83H125V21.1h-21.1V0H77.58V26.38h5.28Z"/><rect class="cls-1" x="213.35" y="51.26" width="5.28" height="5.28" transform="translate(25.15 168.52) rotate(-45)"/><rect class="cls-1" x="205.89" y="58.72" width="5.28" height="5.28" transform="translate(17.69 165.43) rotate(-45)"/><rect class="cls-1" x="157.42" y="25.17" width="5.28" height="5.28" transform="translate(27.21 121.32) rotate(-45)"/><polygon class="cls-1" points="193.27 57.29 189.54 53.56 185.81 57.29 189.54 57.29 193.27 57.29"/><polygon class="cls-1" points="181.96 53.67 178.23 49.95 174.5 53.67 178.23 53.67 181.96 53.67"/><polygon class="cls-1" points="170.88 49.83 167.15 46.1 163.42 49.83 167.15 49.83 170.88 49.83"/><polygon class="cls-1" points="146.69 72.21 151.97 72.21 157.24 72.21 162.52 72.21 167.79 72.21 173.07 72.21 178.34 72.21 182.07 68.48 185.81 64.75 189.54 61.02 185.81 61.02 182.07 61.02 178.34 64.75 176.16 66.93 173.07 66.93 168.7 66.93 170.88 64.75 174.61 61.02 178.34 57.29 174.61 57.29 170.88 57.29 167.15 61.02 163.42 64.75 161.24 66.93 157.24 66.93 153.78 66.93 155.96 64.75 159.69 61.02 163.42 57.29 167.15 53.56 163.42 53.56 159.69 53.56 155.96 57.29 152.23 61.02 146.32 66.93 141.42 66.93 141.42 66.93 136.14 66.93 130.87 66.93 125.59 66.93 124.66 66.93 126.48 65.11 130.21 61.38 133.94 57.65 137.67 53.92 141.41 50.19 145.13 46.46 148.87 42.73 152.59 39 156.32 35.27 152.59 31.54 148.87 35.27 145.13 39 141.41 42.73 137.67 46.46 133.94 50.19 130.21 53.92 126.48 57.65 122.75 61.38 119.02 65.11 115.64 68.49 115.29 68.84 111.91 72.22 115.64 72.28 119.37 72.22 119.36 72.21 120.32 72.21 125.59 72.21 130.87 72.21 136.14 72.21 141.42 72.21 146.69 72.21"/><path class="cls-1" d="M175,24.07l-3.72-3.72L175,16.62l3.72,3.72Zm-3.72-11.18-3.73,3.73-3.73,3.73,3.72,3.72h0l3.72,3.72L175,31.53l3.73-3.73,3.73-3.73,3.73-3.73-3.73-3.73-3.72-3.72,3.73-3.73,3.72,3.72,3.73,3.73,3.72,3.72-3.73,3.73-3.73,3.73-3.73,3.73-3.73,3.73L182.42,39l3.73,3.73,3.73,3.73,3.73,3.73,3.73,3.73,3.73,3.73,3.73-3.73,3.73-3.73,3.73-3.73-3.73-3.73L204.8,39l-3.73-3.73,3.73-3.73,24.53,24.53,3.73,3.73,3.73,3.73,3,3H191.54l-2.63,2.64-2.64,2.64h66.21L248,67.24l-.77-.77-3-3-3.73-3.73-3.73-3.73-3.73-3.73L204.8,24.06l-3.73,3.73-3.73,3.73-3.73,3.73L197.34,39l3.73,3.73,3.73,3.73-3.73,3.73-3.73-3.73-3.73-3.73L189.88,39l-3.73-3.73,3.73-3.73,3.73-3.73,3.73-3.73,3.73-3.73-3.72-3.72h0l-3.72-3.72-3.73-3.73-3.72-3.72h0L182.44,1.7l-3.73,3.73L175,9.16Z"/><rect class="cls-1" x="236.71" y="135.02" width="5.28" height="5.28"/><rect class="cls-1" x="226.16" y="135.02" width="5.28" height="5.28"/><rect class="cls-1" x="215.6" y="77.02" width="5.28" height="5.28"/><polygon class="cls-1" points="218.24 121.35 220.88 123.99 220.88 118.71 215.6 118.71 218.24 121.35"/><polygon class="cls-1" points="215.44 113.44 215.44 108.16 210.16 108.16 212.8 110.8 215.44 113.44"/><polygon class="cls-1" points="205.06 97.61 207.69 100.25 210.33 102.89 210.33 97.61 205.06 97.61"/><polygon class="cls-1" points="184.86 109.07 188.59 112.8 192.32 116.53 196.05 120.26 199.78 123.99 205.05 123.99 210.33 123.99 215.6 123.99 212.97 121.35 210.33 118.71 205.05 118.71 201.96 118.71 199.78 116.53 196.69 113.44 199.78 113.44 205.05 113.44 210.33 113.44 207.69 110.8 205.05 108.16 199.78 108.16 194.5 108.16 191.41 108.16 188.59 105.34 186.14 102.89 189.23 102.89 194.5 102.89 199.78 102.89 205.05 102.89 202.42 100.25 199.78 97.61 194.5 97.61 189.23 97.61 180.86 97.61 177.4 94.15 173.67 90.42 169.94 86.69 166.21 82.96 165.55 82.3 168.13 82.3 173.4 82.3 178.68 82.3 183.95 82.3 189.23 82.3 194.5 82.3 199.78 82.3 205.05 82.3 210.33 82.3 210.33 77.02 205.05 77.02 199.78 77.02 194.5 77.02 189.23 77.02 183.95 77.02 178.68 77.02 173.4 77.02 168.13 77.02 162.85 77.02 158.07 77.02 157.58 77.02 152.79 77.02 155.4 79.7 158.07 82.3 158.07 82.28 158.75 82.96 162.48 86.69 166.21 90.42 169.94 94.15 173.67 97.88 177.4 101.61 181.13 105.34 184.86 109.07"/><path class="cls-1" d="M236.71,87.56h-5.28V82.3h5.28ZM247.26,77h-21.1V92.83H242V82.3h5.28V98.09h-21.1v31.66H242V113.92h5.28v49.43l-1.09-1.09-3.74-3.73-3.73-3.73L235,151.07l-3.15-3.16-3.73-3.72-3.73-3.74-3.73-3.73L216.9,133l-3.73-3.73h-7.46l3.73,3.73,3.73,3.73,3.73,3.73,3.73,3.73,3.73,3.73,3.73,3.73,3.15,3.16.58.58,3.15,3.15,3.73,3.73,3.73,3.73,3.74,3.73,6.36,6.36V108.64H236.71v15.83h-5.28v-21.1h21.1V77Z"/><rect class="cls-1" x="195.44" y="212.18" width="5.28" height="5.28" transform="translate(-93.89 202.98) rotate(-45)"/><rect class="cls-1" x="187.98" y="204.72" width="5.28" height="5.28" transform="translate(-90.79 195.52) rotate(-45)"/><polygon class="cls-1" points="179.76 166.62 179.76 171.9 179.76 177.18 183.49 180.91 187.22 184.64 190.96 188.37 190.96 184.64 190.96 180.91 187.22 177.18 185.04 174.99 185.04 171.9 185.04 167.53 187.22 169.72 190.96 173.44 194.69 177.18 194.69 173.44 194.69 169.72 190.96 165.98 187.22 162.25 185.04 160.07 185.04 156.07 185.04 152.61 187.22 154.79 190.96 158.52 194.69 162.25 198.41 165.98 198.41 162.25 198.41 158.52 194.69 154.79 190.96 151.06 185.04 145.15 185.04 140.25 185.04 134.97 185.04 129.7 185.04 124.42 185.04 123.49 186.86 125.31 190.59 129.04 194.32 132.78 198.05 136.5 201.78 140.24 205.51 143.96 209.24 147.69 212.97 151.43 216.7 155.16 220.43 151.43 216.7 147.69 212.97 143.96 209.24 140.24 205.51 136.5 201.78 132.78 198.05 129.04 194.32 125.31 190.59 121.58 186.86 117.85 183.48 114.47 183.13 114.12 179.75 110.74 179.76 156.07 179.76 161.35 179.76 166.62"/><rect class="cls-1" x="221.53" y="156.25" width="5.28" height="5.28" transform="translate(-46.69 205.05) rotate(-45)"/><polygon class="cls-1" points="194.69 188.37 194.69 192.1 198.41 188.37 194.69 184.64 194.69 188.37"/><polygon class="cls-1" points="198.3 173.33 198.3 177.06 198.3 180.79 202.03 177.06 198.3 173.33"/><polygon class="cls-1" points="202.15 165.98 202.15 169.72 205.88 165.98 202.15 162.25 202.15 165.98"/><path class="cls-1" d="M231.64,177.53l-3.73-3.73,3.71-3.72,3.74,3.73Zm11.18-3.72-3.73-3.73-3.73-3.73-3.74-3.73-3.71,3.72h0l-3.72,3.72-3.73,3.73,3.73,3.73,3.74,3.73,3.73,3.73,3.73-3.73,3.72-3.72,3.73,3.73L239.1,185l-3.73,3.73-3.72,3.72-3.73-3.73L224.19,185l-3.73-3.73-3.74-3.73L213,181.25,209.27,185l-3.74,3.73-3.73,3.73-3.73,3.73-3.73,3.73,3.73,3.73,3.73,3.73,3.73,3.73,3.74-3.73,3.73-3.73,3.72-3.73,3.74,3.73-24.54,24.53-3.73,3.73-3.73,3.73-3,3V190.37l-2.64-2.63-2.63-2.64v66.21l4.5-4.5.77-.77,3-3,3.73-3.73,3.73-3.73,3.73-3.73,28.27-28.26-3.73-3.73-3.73-3.73-3.74-3.73L213,196.17l-3.73,3.73-3.74,3.73-3.73-3.73,3.73-3.73,3.74-3.73,3.73-3.73,3.72-3.73,3.74,3.73,3.73,3.73,3.73,3.73,3.73,3.73,3.72-3.72h0l3.72-3.72,3.73-3.73,3.72-3.72h0l3.72-3.72-3.73-3.73Z"/><path class="cls-2" d="M349.44,102.52H321.82v16.55h26.81v9.77H321.82v23h27.62v9.77h-38V92.76h38Z"/><path class="cls-2" d="M411.31,144.9H381.83l-7.68,16.73H363L397,88.43l32.87,73.2H418.54Zm-4.24-9.77-10.21-23.42-10.71,23.42Z"/><path class="cls-2" d="M485.23,103l-8.43,5c-1.58-2.73-3.08-4.52-4.51-5.35a10.49,10.49,0,0,0-5.75-1.43,10.63,10.63,0,0,0-7.18,2.45,7.6,7.6,0,0,0-2.86,6.07q0,5,7.5,8.12l6.87,2.81q8.38,3.39,12.26,8.28a18.6,18.6,0,0,1,3.88,12,21,21,0,0,1-6.33,15.7,21.72,21.72,0,0,1-15.84,6.25q-9,0-14.81-5.31t-7.18-14.94l10.53-2.32c.48,4,1.31,6.84,2.5,8.38q3.21,4.47,9.37,4.47a10.87,10.87,0,0,0,8.07-3.26A12.25,12.25,0,0,0,476,138a9.17,9.17,0,0,0-1.74-3.08,13.38,13.38,0,0,0-3.05-2.63,30.1,30.1,0,0,0-4.46-2.35l-6.65-2.76q-14.15-6-14.14-17.49a16.61,16.61,0,0,1,5.93-13,21.45,21.45,0,0,1,14.77-5.26Q478.54,91.42,485.23,103Z"/><path class="cls-2" d="M520.61,131.88,498.12,92.76h12l15.75,27.52,15.79-27.52h12L531,131.88v29.75H520.61Z"/><path class="cls-2" d="M615.63,119.7h29.71V92.76h10.39v68.87H645.34V129.47H615.63v32.16h-10.4V92.76h10.4Z"/><path class="cls-2" d="M718,102.52H690.39v16.55H717.2v9.77H690.39v23H718v9.77H680V92.76h38Z"/><path class="cls-2" d="M779.88,144.9H750.4l-7.68,16.73H731.53l34.08-73.2,32.87,73.2H787.11Zm-4.24-9.77-10.21-23.42-10.71,23.42Z"/><path class="cls-2" d="M825.25,92.76v59.1H845.5v9.77H814.86V92.76Z"/><path class="cls-2" d="M877.67,102.52v59.11H867.28V102.52H851.44V92.76h42v9.76Z"/><path class="cls-2" d="M920.9,119.7h29.71V92.76H961v68.87H950.61V129.47H920.9v32.16H910.5V92.76h10.4Z"/></g></g></svg>