<svg xmlns="http://www.w3.org/2000/svg" viewBox="0 0 2241 1273.19"><defs><style>.cls-1{fill:#020303;}.cls-2{fill:#010101;}</style></defs><g id="Camada_2" data-name="Camada 2"><g id="Layer_1" data-name="Layer 1"><rect class="cls-1" x="1070.16" y="812.4" width="18.2" height="18.2"/><rect class="cls-1" x="1070.17" y="776.01" width="18.2" height="18.2"/><polygon class="cls-1" points="1152.17 659.27 1139.3 672.14 1126.43 685.01 1126.43 703.21 1126.43 721.41 1126.43 739.61 1135.53 730.51 1144.63 721.41 1144.63 703.21 1144.63 692.55 1152.17 685.01 1162.83 674.35 1162.83 685.01 1162.83 703.21 1162.83 721.41 1171.93 712.31 1181.03 703.21 1181.03 685.01 1181.03 666.81 1181.03 656.15 1190.78 646.4 1177.91 633.53 1165.04 646.4 1152.17 659.27"/><rect class="cls-1" x="1270.26" y="739.6" width="18.2" height="18.2"/><polygon class="cls-1" points="1144.63 739.61 1135.53 748.71 1126.43 757.81 1144.63 757.81 1144.63 739.61"/><polygon class="cls-1" points="1181.03 720.84 1171.93 729.94 1162.83 739.04 1181.03 739.04 1181.03 720.84"/><polygon class="cls-1" points="1217.43 703.21 1208.33 712.31 1199.23 721.41 1217.43 721.41 1217.43 703.21"/><polygon class="cls-1" points="1270.26 541.11 1270.32 541.11 1267.99 543.45 1255.12 556.31 1242.25 569.18 1229.38 582.05 1216.52 594.92 1203.65 607.79 1190.78 620.66 1177.91 633.53 1190.78 646.4 1199.23 637.95 1199.23 648.61 1199.23 666.81 1199.23 685.01 1199.23 703.21 1208.33 694.11 1217.43 685.01 1217.43 666.81 1217.43 648.61 1217.43 619.75 1229.38 607.79 1242.25 594.92 1255.12 582.05 1267.99 569.18 1270.26 566.92 1270.26 575.81 1270.26 594.01 1270.26 612.21 1270.26 630.41 1270.26 648.61 1270.26 666.81 1270.26 685.01 1270.26 703.21 1270.26 721.41 1288.46 721.41 1288.46 703.21 1288.46 685.01 1288.46 666.81 1288.46 648.61 1288.46 630.41 1288.46 612.21 1288.46 594.01 1288.46 575.81 1288.46 557.61 1288.46 541.11 1288.46 539.41 1288.46 522.92 1279.23 531.88 1270.26 541.11"/><path class="cls-1" d="M1270.26,812.41h-18.15v-18.2h18.15Zm0-36.4h-36.35v54.6h36.35v18.2h-54.49V776h-109.2v54.6h54.59v18.2H990.63L994.4,845l12.86-12.87,12.87-12.87L1033,806.43l10.88-10.87,12.87-12.87,12.87-12.87L1082.49,757l12.87-12.87,12.87-12.87V705.47l-12.87,12.87-12.87,12.87-12.87,12.87L1056.75,757l-12.87,12.87L1031,782.69l-10.88,10.87-2,2-10.88,10.87L994.4,819.3l-12.87,12.87L968.66,845l-21.95,22,21.95,0h210.71v-54.6h-54.61v-18.2h72.8V867h90.9V776h-18.2Z"/><rect class="cls-1" x="801.86" y="671.96" width="18.2" height="18.2" transform="translate(-244.06 772.9) rotate(-45)"/><rect class="cls-1" x="827.6" y="646.22" width="18.2" height="18.2" transform="translate(-218.32 783.56) rotate(-45)"/><rect class="cls-1" x="994.83" y="761.97" width="18.2" height="18.2" transform="translate(-251.18 935.74) rotate(-45)"/><polygon class="cls-1" points="889.35 669.36 902.22 682.23 915.09 669.36 902.22 669.36 889.35 669.36"/><polygon class="cls-1" points="928.36 681.83 941.23 694.7 954.1 681.83 941.23 681.83 928.36 681.83"/><polygon class="cls-1" points="966.57 695.1 979.44 707.97 992.31 695.1 979.44 695.1 966.57 695.1"/><polygon class="cls-1" points="1106.88 655.25 1094.01 668.12 1081.14 680.98 1068.27 693.85 1055.4 706.72 1042.53 719.59 1029.66 732.46 1016.8 745.33 1029.66 758.2 1042.53 745.33 1055.4 732.46 1068.27 719.59 1081.14 706.72 1094.01 693.85 1106.88 680.98 1119.75 668.12 1132.62 655.25 1145.49 642.38 1157.15 630.71 1158.36 629.51 1170.02 617.84 1157.15 617.66 1144.28 617.84 1144.33 617.89 1141.03 617.89 1122.83 617.89 1104.63 617.89 1086.43 617.89 1068.23 617.89 1050.03 617.89 1031.83 617.89 1013.63 617.89 995.43 617.89 977.23 617.89 959.03 617.89 940.83 617.89 927.96 630.76 915.09 643.63 902.22 656.5 915.09 656.5 927.96 656.5 940.83 643.63 948.37 636.09 959.03 636.09 974.11 636.09 966.57 643.63 953.7 656.5 940.83 669.37 953.7 669.37 966.57 669.37 979.44 656.5 992.31 643.63 999.85 636.09 1013.63 636.09 1025.59 636.09 1018.05 643.63 1005.18 656.5 992.31 669.37 979.44 682.23 992.31 682.23 1005.18 682.23 1018.05 669.37 1030.91 656.5 1051.32 636.09 1068.23 636.09 1086.43 636.09 1104.63 636.09 1122.83 636.09 1126.04 636.09 1119.75 642.38 1106.88 655.25"/><path class="cls-1" d="M952.49,784l12.83,12.84-12.87,12.87-12.83-12.84Zm12.83,38.58,12.87-12.87,12.87-12.87L978.22,784l0,0L965.35,771.1l-12.86-12.87L939.62,771.1,926.75,784l-12.87,12.87,12.87,12.87,12.83,12.84-12.87,12.87-12.83-12.84L901,809.71l-12.84-12.83L901,784l12.87-12.87,12.87-12.87,12.87-12.87-12.87-12.87-12.87-12.87L901,706.8l-12.87-12.87L875.3,681.06l-12.86-12.87-12.87,12.87L836.7,693.93,823.83,706.8l12.87,12.86,12.87,12.87,12.87,12.87-12.87,12.87-84.65-84.64-12.87-12.87-12.87-12.87L729,637.68H895.29l9.1-9.1,9.1-9.1H685.07L700.58,635l2.66,2.66,10.21,10.21,12.86,12.87,12.87,12.87,12.87,12.87L849.57,784l12.87-12.87,12.86-12.87,12.87-12.87L875.3,732.53l-12.86-12.87L849.57,706.8l12.87-12.87L875.3,706.8l12.87,12.86L901,732.53l12.87,12.87L901,758.27l-12.87,12.87L875.3,784l-12.86,12.87,12.83,12.83,0,0,12.84,12.83L901,835.45l12.83,12.84,0,0,12.83,12.83,12.87-12.86,12.87-12.87Z"/><rect class="cls-1" x="721.28" y="382.99" width="18.2" height="18.2"/><rect class="cls-1" x="757.68" y="382.99" width="18.2" height="18.2"/><polygon class="cls-1" points="892.62 464.99 879.75 452.12 866.88 439.25 848.68 439.25 830.48 439.25 812.28 439.25 821.38 448.35 830.48 457.45 848.68 457.45 859.34 457.45 866.88 464.99 877.54 475.65 866.88 475.65 848.68 475.65 830.48 475.65 839.58 484.75 848.68 493.85 866.88 493.85 885.08 493.85 895.74 493.85 905.49 503.6 918.36 490.73 905.49 477.86 892.62 464.99"/><rect class="cls-1" x="794.08" y="583.08" width="18.2" height="18.2"/><polygon class="cls-1" points="803.18 448.35 794.08 439.25 794.08 457.45 812.28 457.45 803.18 448.35"/><polygon class="cls-1" points="812.85 475.65 812.85 493.85 831.05 493.85 821.95 484.75 812.85 475.65"/><polygon class="cls-1" points="848.68 530.25 839.58 521.15 830.48 512.05 830.48 530.25 848.68 530.25"/><polygon class="cls-1" points="918.36 490.73 905.49 503.6 913.94 512.05 903.28 512.05 885.08 512.05 866.88 512.05 848.68 512.05 857.78 521.15 866.88 530.25 885.08 530.25 903.28 530.25 932.14 530.25 944.1 542.21 956.97 555.07 969.84 567.94 982.7 580.81 984.98 583.09 976.08 583.09 957.88 583.09 939.68 583.09 921.48 583.09 903.28 583.09 885.08 583.09 866.88 583.09 848.68 583.09 830.48 583.09 830.48 601.28 848.68 601.28 866.88 601.28 885.08 601.28 903.28 601.28 921.48 601.28 939.68 601.28 957.88 601.28 976.08 601.28 994.28 601.28 1010.77 601.28 1012.48 601.28 1028.98 601.28 1020.01 592.05 1010.77 583.09 1010.77 583.15 1008.44 580.81 995.57 567.94 982.7 555.07 969.84 542.21 956.97 529.34 944.1 516.47 931.23 503.6 918.36 490.73"/><path class="cls-1" d="M739.48,564.94h18.2v18.14h-18.2Zm-18.2,36.34h54.6V546.74h-54.6v36.34h-18.2V528.59h72.8V419.39h-54.6V474h-18.2V303.45l3.77,3.77,12.87,12.87L732.59,333l12.87,12.87,10.88,10.88,12.87,12.87,12.87,12.87L795,395.32l12.86,12.86,12.87,12.87h25.74l-12.87-12.87-12.87-12.86-12.87-12.87L795,369.58l-12.87-12.87-12.87-12.87L758.33,333l-2-2-10.88-10.88-12.87-12.87-12.87-12.87-12.87-12.87-22-22,0,22V492.19h54.6v-54.6h18.2v72.8h-72.8v90.89h36.4Z"/><rect class="cls-1" x="863.66" y="116.79" width="18.2" height="18.2" transform="translate(166.6 654) rotate(-45)"/><rect class="cls-1" x="889.4" y="142.53" width="18.2" height="18.2" transform="translate(155.95 679.75) rotate(-45)"/><polygon class="cls-1" points="935.93 292.16 935.93 273.96 935.93 255.76 923.07 242.89 910.2 230.02 897.33 217.15 897.33 230.02 897.33 242.89 910.2 255.76 917.73 263.3 917.73 273.96 917.73 289.04 910.2 281.5 897.33 268.63 884.46 255.76 884.46 268.63 884.46 281.5 897.33 294.37 910.2 307.24 917.73 314.78 917.73 328.56 935.93 328.56 935.93 310.36 935.93 292.16"/><rect class="cls-1" x="773.65" y="309.76" width="18.2" height="18.2" transform="translate(3.8 646.87) rotate(-45)"/><polygon class="cls-1" points="884.46 217.15 884.46 204.28 871.59 217.15 884.46 230.02 884.46 217.15"/><polygon class="cls-1" points="871.99 269.03 871.99 256.16 871.99 243.29 859.12 256.16 871.99 269.03"/><polygon class="cls-1" points="858.72 294.37 858.72 281.5 845.85 294.37 858.72 307.24 858.72 294.37"/><polygon class="cls-1" points="917.74 340.51 910.2 332.98 897.33 320.11 884.46 307.24 871.59 294.37 871.59 307.24 871.59 320.11 884.46 332.98 897.33 345.85 917.74 366.25 917.74 383.16 917.74 401.36 917.74 419.56 917.74 437.76 917.74 440.97 911.45 434.68 898.58 421.81 885.71 408.94 872.84 396.07 859.97 383.2 847.1 370.34 834.23 357.47 821.36 344.6 808.49 331.73 795.62 344.6 808.49 357.47 821.36 370.34 834.23 383.2 847.1 396.07 859.97 408.94 872.84 421.81 885.71 434.68 898.58 447.55 911.45 460.42 923.11 472.08 924.31 473.29 935.98 484.95 935.94 328.56 917.74 328.56 917.74 340.51"/><path class="cls-1" d="M757,254.55l12.87,12.87L757,280.25l-12.87-12.87Zm-38.57,12.83,12.87,12.87,12.86,12.87L757,306l12.84-12.84,0,0,12.84-12.83,12.87-12.87-12.87-12.87-12.87-12.87L757,228.81l-12.87,12.87-12.83,12.83-12.87-12.87,12.83-12.83,12.87-12.87,12.83-12.84L769.81,216l12.87,12.87,12.87,12.87,12.87,12.87,12.87-12.87,12.86-12.87L847,216l12.87-12.87,12.87-12.87,12.87-12.86L872.76,164.5l-12.87-12.87L847,138.76l-12.87,12.87L821.29,164.5l-12.87,12.87L795.55,164.5l84.64-84.65L893.06,67l12.87-12.87,10.21-10.2V210.22l9.1,9.1,9.1,9.1V0L918.8,15.51l-2.66,2.66L905.93,28.38,893.06,41.24,880.19,54.11,867.32,67,769.81,164.5l12.87,12.87,12.87,12.86,12.87,12.87,12.87-12.87,12.86-12.86L847,164.5l12.87,12.87L847,190.23,834.15,203.1,821.29,216l-12.87,12.87L795.55,216,782.68,203.1l-12.87-12.87-12.87-12.86L744.11,190.2l0,0-12.83,12.84-12.87,12.87-12.83,12.83,0,0-12.83,12.83,12.87,12.87Z"/><rect class="cls-1" x="1152.63" y="36.4" width="18.2" height="18.2"/><rect class="cls-1" x="1152.63" y="72.8" width="18.2" height="18.2"/><polygon class="cls-1" points="1088.83 207.74 1101.7 194.87 1114.57 182 1114.57 163.8 1114.57 145.6 1114.57 127.4 1105.47 136.5 1096.37 145.6 1096.37 163.8 1096.37 174.46 1088.83 182 1078.17 192.66 1078.17 182 1078.17 163.8 1078.17 145.6 1069.07 154.7 1059.97 163.8 1059.97 182 1059.97 200.2 1059.97 210.86 1050.22 220.61 1063.09 233.48 1075.96 220.61 1088.83 207.74"/><rect class="cls-1" x="952.53" y="109.2" width="18.2" height="18.2"/><polygon class="cls-1" points="1096.37 127.4 1105.47 118.3 1114.57 109.2 1096.37 109.2 1096.37 127.4"/><polygon class="cls-1" points="1059.97 146.17 1069.07 137.07 1078.17 127.97 1059.97 127.97 1059.97 146.17"/><polygon class="cls-1" points="1023.57 163.8 1032.67 154.7 1041.77 145.6 1023.57 145.6 1023.57 163.8"/><polygon class="cls-1" points="970.74 325.89 970.67 325.89 973 323.56 985.88 310.69 998.74 297.82 1011.61 284.96 1024.48 272.09 1037.35 259.22 1050.22 246.35 1063.09 233.48 1050.22 220.61 1041.77 229.06 1041.77 218.4 1041.77 200.2 1041.77 182 1041.77 163.8 1032.67 172.9 1023.57 182 1023.57 200.2 1023.57 218.4 1023.57 247.26 1011.61 259.22 998.74 272.09 985.88 284.96 973 297.82 970.74 300.09 970.74 291.2 970.74 273 970.74 254.8 970.74 236.6 970.74 218.4 970.74 200.2 970.74 182 970.74 163.8 970.74 145.6 952.53 145.6 952.53 163.8 952.53 182 952.53 200.2 952.53 218.4 952.53 236.6 952.53 254.8 952.53 273 952.53 291.2 952.53 309.4 952.53 325.89 952.53 327.6 952.53 344.09 961.76 335.13 970.74 325.89"/><path class="cls-1" d="M970.74,54.6h18.14V72.8H970.74Zm0,36.4h36.35V36.4H970.74V18.2h54.49V91h109.2V36.4h-54.6V18.2h170.54L1246.6,22l-12.87,12.87-12.87,12.87L1208,60.58l-10.88,10.88-12.87,12.86-12.87,12.87-12.87,12.87-12.87,12.87-12.87,12.87v25.74l12.87-12.87,12.87-12.87,12.87-12.87,12.87-12.87,12.87-12.87L1210,84.32l10.87-10.87,2-2,10.87-10.88,12.87-12.87,12.87-12.87L1272.34,22l22-21.95-22,0H1061.63V54.6h54.6V72.8h-72.8V0H952.54V91h18.2Z"/><rect class="cls-1" x="1420.94" y="176.85" width="18.2" height="18.2" transform="translate(287.37 1065.66) rotate(-45)"/><rect class="cls-1" x="1395.2" y="202.59" width="18.2" height="18.2" transform="translate(261.63 1055) rotate(-45)"/><rect class="cls-1" x="1227.97" y="86.84" width="18.2" height="18.2" transform="translate(294.48 902.83) rotate(-45)"/><polygon class="cls-1" points="1351.65 197.65 1338.78 184.78 1325.91 197.65 1338.78 197.65 1351.65 197.65"/><polygon class="cls-1" points="1312.64 185.18 1299.77 172.31 1286.9 185.18 1299.77 185.18 1312.64 185.18"/><polygon class="cls-1" points="1274.43 171.91 1261.56 159.04 1248.69 171.91 1261.56 171.91 1274.43 171.91"/><polygon class="cls-1" points="1190.97 249.12 1209.17 249.12 1227.37 249.12 1245.57 249.12 1263.77 249.12 1281.97 249.12 1300.17 249.12 1313.04 236.25 1325.91 223.38 1338.78 210.51 1325.91 210.51 1313.04 210.51 1300.17 223.38 1292.63 230.92 1281.97 230.92 1266.89 230.92 1274.43 223.38 1287.3 210.51 1300.17 197.64 1287.3 197.64 1274.43 197.64 1261.56 210.51 1248.69 223.38 1241.15 230.92 1227.37 230.92 1215.41 230.92 1222.95 223.38 1235.82 210.51 1248.69 197.64 1261.56 184.78 1248.69 184.78 1235.82 184.78 1222.95 197.64 1210.09 210.51 1189.67 230.92 1172.77 230.92 1172.77 230.92 1154.57 230.92 1136.37 230.92 1118.17 230.92 1114.96 230.92 1121.25 224.63 1134.12 211.76 1146.99 198.89 1159.86 186.03 1172.73 173.16 1185.6 160.28 1198.46 147.42 1211.33 134.55 1224.2 121.68 1211.33 108.81 1198.46 121.68 1185.6 134.55 1172.73 147.42 1159.86 160.28 1146.99 173.16 1134.12 186.03 1121.25 198.89 1108.38 211.76 1095.51 224.63 1083.84 236.3 1082.64 237.5 1070.97 249.17 1083.84 249.35 1096.71 249.17 1096.67 249.12 1099.97 249.12 1118.17 249.12 1136.37 249.12 1154.57 249.12 1172.77 249.12 1190.97 249.12"/><path class="cls-1" d="M1288.51,83,1275.68,70.2l12.87-12.87,12.83,12.83Zm-12.83-38.57-12.87,12.87L1249.94,70.2,1262.77,83l0,0,12.83,12.83,12.87,12.87,12.87-12.87L1314.25,83l12.87-12.87L1314.25,57.3l-12.83-12.84,12.87-12.87,12.83,12.84L1340,57.3l12.83,12.83L1340,83l-12.87,12.87-12.87,12.87-12.87,12.87,12.87,12.87,12.87,12.87L1340,160.21l12.87,12.87L1365.69,186l12.87,12.87L1391.43,186l12.87-12.87,12.87-12.87-12.87-12.86-12.87-12.87-12.87-12.87,12.87-12.87,84.65,84.64L1489,206.25l12.87,12.87,10.2,10.2H1345.71l-9.1,9.1-9.11,9.11h228.43L1540.42,232l-2.66-2.67-10.21-10.2-12.87-12.87-12.86-12.87L1489,180.51,1391.43,83l-12.87,12.87-12.87,12.87-12.87,12.87,12.87,12.87,12.87,12.87,12.87,12.86-12.87,12.87-12.87-12.87-12.87-12.86L1340,134.48l-12.87-12.87L1340,108.74l12.87-12.87L1365.69,83l12.87-12.87L1365.73,57.3l0,0-12.83-12.83L1340,31.56l-12.83-12.84,0,0L1314.29,5.85l-12.87,12.87-12.87,12.87Z"/><rect class="cls-1" x="1501.51" y="465.82" width="18.2" height="18.2"/><rect class="cls-1" x="1465.11" y="465.82" width="18.2" height="18.2"/><rect class="cls-1" x="1428.71" y="265.72" width="18.2" height="18.2"/><polygon class="cls-1" points="1437.82 418.66 1446.92 427.76 1446.92 409.56 1428.71 409.56 1437.82 418.66"/><polygon class="cls-1" points="1428.15 391.36 1428.15 373.16 1409.94 373.16 1419.05 382.26 1428.15 391.36"/><polygon class="cls-1" points="1392.32 336.76 1401.42 345.86 1410.52 354.96 1410.52 336.76 1392.32 336.76"/><polygon class="cls-1" points="1322.64 376.28 1335.51 389.15 1348.38 402.02 1361.25 414.89 1374.12 427.76 1392.32 427.76 1410.52 427.76 1428.71 427.76 1419.61 418.66 1410.52 409.56 1392.32 409.56 1381.65 409.56 1374.12 402.02 1363.46 391.36 1374.12 391.36 1392.32 391.36 1410.52 391.36 1401.42 382.26 1392.32 373.16 1374.12 373.16 1355.91 373.16 1345.26 373.16 1335.51 363.41 1327.06 354.96 1337.72 354.96 1355.91 354.96 1374.12 354.96 1392.32 354.96 1383.21 345.86 1374.12 336.76 1355.91 336.76 1337.72 336.76 1308.86 336.76 1296.9 324.8 1284.03 311.93 1271.16 299.06 1258.29 286.2 1256.02 283.92 1264.92 283.92 1283.12 283.92 1301.32 283.92 1319.52 283.92 1337.72 283.92 1355.91 283.92 1374.12 283.92 1392.32 283.92 1410.52 283.92 1410.52 265.72 1392.32 265.72 1374.12 265.72 1355.91 265.72 1337.72 265.72 1319.52 265.72 1301.32 265.72 1283.12 265.72 1264.92 265.72 1246.71 265.72 1230.22 265.72 1228.52 265.72 1212.02 265.72 1220.99 274.96 1230.22 283.92 1230.22 283.86 1232.56 286.2 1245.42 299.06 1258.29 311.93 1271.16 324.8 1284.03 337.67 1296.9 350.54 1309.77 363.41 1322.64 376.28"/><path class="cls-1" d="M1501.52,302.07h-18.2V283.93h18.2Zm36.4-36.35h-72.8v54.55h54.6V283.93h18.2v54.49h-72.8v109.2h54.6V393h18.2V563.56l-3.77-3.77-12.87-12.87-12.87-12.87-12.87-12.87-10.88-10.88-12.87-12.86-12.87-12.87-12.87-12.87-12.86-12.87L1420.32,446h-25.74l12.87,12.87,12.87,12.87,12.87,12.87,12.86,12.86,12.87,12.87,12.87,12.87,10.88,10.88,2,2,10.88,10.88,12.87,12.87,12.87,12.87,12.87,12.87,21.95,22,0-22V374.82h-54.6v54.6h-18.2v-72.8h72.8v-90.9Z"/><rect class="cls-1" x="1359.13" y="732.02" width="18.2" height="18.2" transform="translate(-123.3 1184.57) rotate(-45)"/><rect class="cls-1" x="1333.39" y="706.28" width="18.2" height="18.2" transform="translate(-112.65 1158.81) rotate(-45)"/><polygon class="cls-1" points="1305.06 574.85 1305.06 593.05 1305.06 611.25 1317.93 624.12 1330.8 636.99 1343.67 649.86 1343.67 636.99 1343.67 624.12 1330.8 611.25 1323.27 603.71 1323.27 593.05 1323.27 577.97 1330.8 585.51 1343.67 598.38 1356.54 611.25 1356.54 598.38 1356.54 585.51 1343.67 572.64 1330.8 559.77 1323.27 552.24 1323.27 538.45 1323.27 526.5 1330.8 534.03 1343.67 546.9 1356.54 559.77 1369.41 572.64 1369.41 559.77 1369.41 546.9 1356.54 534.03 1343.67 521.16 1323.27 500.76 1323.27 483.85 1323.27 465.65 1323.27 447.45 1323.27 429.25 1323.27 426.04 1329.55 432.33 1342.42 445.2 1355.29 458.07 1368.16 470.94 1381.03 483.81 1393.9 496.67 1406.77 509.54 1419.64 522.41 1432.51 535.28 1445.38 522.41 1432.51 509.54 1419.64 496.67 1406.77 483.81 1393.9 470.94 1381.03 458.07 1368.16 445.2 1355.29 432.33 1342.42 419.46 1329.55 406.59 1317.89 394.93 1316.68 393.72 1305.02 382.06 1305.06 538.45 1305.06 556.65 1305.06 574.85"/><rect class="cls-1" x="1449.15" y="539.05" width="18.2" height="18.2" transform="translate(39.51 1191.7) rotate(-45)"/><polygon class="cls-1" points="1356.54 649.86 1356.54 662.73 1369.41 649.86 1356.54 636.99 1356.54 649.86"/><polygon class="cls-1" points="1369.01 597.98 1369.01 610.85 1369.01 623.72 1381.88 610.85 1369.01 597.98"/><polygon class="cls-1" points="1382.28 572.64 1382.28 585.51 1395.15 572.64 1382.28 559.77 1382.28 572.64"/><path class="cls-1" d="M1484,612.46l-12.87-12.87L1484,586.76l12.87,12.87Zm38.57-12.83-12.87-12.87-12.87-12.87L1484,561l-12.83,12.83,0,0-12.83,12.83-12.87,12.87,12.87,12.87,12.87,12.87L1484,638.2l12.87-12.87,12.83-12.83,12.87,12.87-12.83,12.83-12.87,12.87-12.83,12.83L1471.19,651l-12.87-12.87-12.87-12.86-12.87-12.87-12.87,12.87-12.87,12.86L1394,651,1381.1,663.9l-12.87,12.87-12.87,12.87,12.87,12.87,12.87,12.87L1394,728.25l12.87-12.87,12.87-12.87,12.87-12.87,12.87,12.87-84.65,84.65L1347.93,800l-12.87,12.87-10.2,10.2V656.79l-9.1-9.1-9.1-9.1V867l15.53-15.5,2.67-2.67,10.2-10.2,12.87-12.87,12.87-12.87L1373.67,800l97.52-97.52-12.87-12.87-12.87-12.87-12.87-12.87-12.87,12.87-12.87,12.87L1394,702.51l-12.87-12.87L1394,676.77l12.87-12.87L1419.71,651l12.87-12.87L1445.45,651l12.87,12.87,12.87,12.87,12.87,12.87,12.83-12.83,0,0,12.83-12.83,12.87-12.87,12.83-12.83,0,0,12.83-12.83-12.87-12.87Z"/><path class="cls-2" d="M131.12,1065H35.86v57.1h92.49v33.7H35.86v79.41h95.26v33.71H0V1031.26H131.12Z"/><path class="cls-2" d="M344.59,1211.17H242.86l-26.47,57.71H177.76l117.58-252.55,113.42,252.55H369.52ZM330,1177.46l-35.24-80.79-36.93,80.79Z"/><path class="cls-2" d="M599.6,1066.66l-29.08,17.23q-8.16-14.15-15.55-18.46-7.69-4.93-19.85-4.93-14.93,0-24.78,8.47a26.25,26.25,0,0,0-9.85,20.93q0,17.38,25.86,28l23.7,9.7q28.92,11.7,42.32,28.55t13.39,41.32q0,32.77-21.86,54.17-22,21.55-54.63,21.55-30.93,0-51.09-18.32-19.86-18.31-24.78-51.55l36.32-8q2.46,20.94,8.62,28.94,11.09,15.39,32.32,15.39,16.77,0,27.85-11.24t11.08-28.47a39.94,39.94,0,0,0-1.92-12.69,32.46,32.46,0,0,0-6-10.62,47.94,47.94,0,0,0-10.54-9.08,101.8,101.8,0,0,0-15.39-8.08l-22.93-9.54Q464,1129.3,464,1089.59q0-26.77,20.47-44.78,20.46-18.16,50.94-18.17Q576.52,1026.64,599.6,1066.66Z"/><path class="cls-2" d="M721.65,1166.23l-77.56-135h41.24l54.33,95,54.48-95h41.24l-77.87,135v102.65H721.65Z"/><path class="cls-2" d="M1049.48,1124.22H1152v-93h35.86v237.62H1152v-111H1049.48v111h-35.86V1031.26h35.86Z"/><path class="cls-2" d="M1402.68,1065h-95.26v57.1h92.49v33.7h-92.49v79.41h95.26v33.71H1271.56V1031.26h131.12Z"/><path class="cls-2" d="M1616.15,1211.17H1514.42L1488,1268.88h-38.62l117.57-252.55,113.42,252.55h-39.24Zm-14.62-33.71-35.24-80.79-36.94,80.79Z"/><path class="cls-2" d="M1772.67,1031.26v203.91h69.87v33.71H1736.82V1031.26Z"/><path class="cls-2" d="M1953.51,1065v203.92h-35.86V1065H1863v-33.7h145V1065Z"/><path class="cls-2" d="M2102.65,1124.22h102.49v-93H2241v237.62h-35.86v-111H2102.65v111h-35.86V1031.26h35.86Z"/></g></g></svg>